<svg width="32" height="32" viewBox="0 0 32 32" fill="none" xmlns="http://www.w3.org/2000/svg">
<path d="M16 2C13.2311 2 10.5243 2.82109 8.22202 4.35943C5.91974 5.89777 4.12532 8.08427 3.06569 10.6424C2.00607 13.2006 1.72882 16.0155 2.26901 18.7313C2.80921 21.447 4.14258 23.9416 6.10051 25.8995C8.05845 27.8574 10.553 29.1908 13.2687 29.731C15.9845 30.2712 18.7994 29.9939 21.3576 28.9343C23.9157 27.8747 26.1022 26.0803 27.6406 23.778C29.1789 21.4757 30 18.7689 30 16C30 12.287 28.525 8.72601 25.8995 6.1005C23.274 3.475 19.713 2 16 2ZM23.2067 12.2072L13.4997 21.9142L8.79274 17.2071C8.60559 17.0194 8.5005 16.7652 8.5005 16.5001C8.5005 16.2351 8.60559 15.9808 8.79274 15.7931C8.98317 15.6112 9.2364 15.5096 9.49977 15.5096C9.76314 15.5096 10.0164 15.6112 10.2068 15.7931L13.4998 19.0861L21.7928 10.7931C21.9803 10.6056 22.2346 10.5002 22.4998 10.5002C22.765 10.5002 23.0194 10.6056 23.2069 10.7931C23.3944 10.9806 23.4997 11.2349 23.4997 11.5001C23.4997 11.7653 23.3944 12.0196 23.2069 12.2072H23.2067Z" fill="white"/>
</svg>
