<svg width="266" xmlns="http://www.w3.org/2000/svg" viewBox="0 0 283.39 58">
	<path class="background" fill-rule="evenodd" d="M1 5a4 4 0 0 1 4-4h259.68a4 4 0 0 1 3.47 2l13.72 24a4 4 0 0 1 0 4l-13.72 24a4 4 0 0 1-3.47 2H5a4 4 0 0 1-4-4Z" />
	<path class="border" d="m281.87 27 .86-.5Zm0 4 .86.5Zm-13.72 24 .87.5Zm0-52 .87-.5Zm-3.47-3H5v2h259.68Zm2.6 3.51 13.72 24 1.73-1-13.73-24-1.74 1Zm13.72 24a3 3 0 0 1 0 3l1.73 1a5 5 0 0 0 0-5l-1.73 1Zm0 3-13.72 24 1.74 1 13.71-24-1.73-1ZM5 58h259.68v-2H5ZM0 5v48h2V5Zm267.28 49.49a3 3 0 0 1-2.6 1.51v2a5 5 0 0 0 4.32-2.52l-1.74-1ZM5 0a5 5 0 0 0-5 5h2a3 3 0 0 1 3-3Zm0 56a3 3 0 0 1-3-3H0a5 5 0 0 0 5 5ZM264.68 2a3 3 0 0 1 2.6 1.51l1.74-1A5 5 0 0 0 264.68 0Z" />
</svg>