<?xml version="1.0" encoding="utf-8"?>
<!-- Generator: Adobe Illustrator 27.2.0, SVG Export Plug-In . SVG Version: 6.00 Build 0)  -->
<svg version="1.1" id="Layer_1" xmlns="http://www.w3.org/2000/svg" xmlns:xlink="http://www.w3.org/1999/xlink" x="0px" y="0px"
	 viewBox="0 0 32 32" style="enable-background:new 0 0 32 32;" xml:space="preserve">
<style type="text/css">
	.st0{fill:#5514B4;}
</style>
<path class="st0" d="M16,3c2.6,0,5.1,0.8,7.2,2.2C25.4,6.6,27,8.6,28,11c1,2.4,1.2,5,0.7,7.5c-0.5,2.5-1.7,4.8-3.6,6.7
	s-4.1,3.1-6.7,3.6C16,29.3,13.4,29,11,28c-2.4-1-4.4-2.7-5.8-4.8C3.8,21.1,3,18.6,3,16c0-3.4,1.4-6.8,3.8-9.2C9.2,4.4,12.6,3,16,3z
	 M16,2c-2.8,0-5.5,0.8-7.8,2.4c-2.3,1.5-4.1,3.7-5.2,6.3C2,13.2,1.7,16,2.3,18.7c0.5,2.7,1.9,5.2,3.8,7.2c2,2,4.5,3.3,7.2,3.8
	c2.7,0.5,5.5,0.3,8.1-0.8c2.6-1.1,4.7-2.9,6.3-5.2c1.5-2.3,2.4-5,2.4-7.8c0-3.7-1.5-7.3-4.1-9.9C23.3,3.5,19.7,2,16,2z"/>
<path class="st0" d="M21.4,16.5H10.6c-0.1,0-0.3-0.1-0.4-0.1c-0.1-0.1-0.1-0.2-0.1-0.4c0-0.1,0.1-0.3,0.1-0.4
	c0.1-0.1,0.2-0.1,0.4-0.1h10.7c0.1,0,0.3,0.1,0.4,0.1c0.1,0.1,0.1,0.2,0.1,0.4c0,0.1-0.1,0.3-0.1,0.4C21.6,16.4,21.5,16.5,21.4,16.5
	z"/>
</svg>
