<svg width="32" height="32" viewBox="0 0 32 32" fill="none" xmlns="http://www.w3.org/2000/svg">
<path d="M16 21.8643C15.9343 21.8643 15.8693 21.8514 15.8086 21.8263C15.7479 21.8012 15.6928 21.7643 15.6464 21.7179C15.5999 21.6715 15.5631 21.6163 15.538 21.5556C15.5129 21.495 15.5 21.4299 15.5 21.3643V10.6367C15.5 10.5041 15.5527 10.3769 15.6464 10.2832C15.7402 10.1894 15.8674 10.1367 16 10.1367C16.1326 10.1367 16.2598 10.1894 16.3536 10.2832C16.4473 10.3769 16.5 10.5041 16.5 10.6367V21.3643C16.5 21.4299 16.4871 21.495 16.462 21.5556C16.4369 21.6163 16.4001 21.6715 16.3536 21.7179C16.3072 21.7643 16.2521 21.8012 16.1914 21.8263C16.1307 21.8514 16.0657 21.8643 16 21.8643Z" fill="#5514B4"/>
<path d="M16 3C18.5712 3 21.0846 3.76244 23.2224 5.1909C25.3603 6.61935 27.0265 8.64968 28.0104 11.0251C28.9944 13.4006 29.2518 16.0144 28.7502 18.5362C28.2486 21.0579 27.0105 23.3743 25.1924 25.1924C23.3743 27.0105 21.0579 28.2486 18.5362 28.7502C16.0144 29.2518 13.4006 28.9944 11.0251 28.0104C8.64968 27.0265 6.61936 25.3603 5.1909 23.2224C3.76244 21.0846 3.00001 18.5712 3.00001 16C3.00391 12.5534 4.3748 9.24905 6.81193 6.81192C9.24905 4.37479 12.5534 3.0039 16 3ZM16 2C13.2311 2 10.5243 2.82109 8.22202 4.35943C5.91973 5.89777 4.12532 8.08427 3.06569 10.6424C2.00607 13.2006 1.72882 16.0155 2.26901 18.7313C2.80921 21.447 4.14258 23.9416 6.10051 25.8995C8.05845 27.8574 10.553 29.1908 13.2687 29.731C15.9845 30.2712 18.7994 29.9939 21.3576 28.9343C23.9157 27.8747 26.1022 26.0803 27.6406 23.778C29.1789 21.4757 30 18.7689 30 16C30 12.287 28.525 8.72601 25.8995 6.1005C23.274 3.475 19.713 2 16 2Z" fill="#5514B4"/>
<path d="M21.3633 16.5H10.6348C10.5022 16.5 10.375 16.4473 10.2812 16.3536C10.1874 16.2598 10.1348 16.1326 10.1348 16C10.1348 15.8674 10.1874 15.7402 10.2812 15.6464C10.375 15.5527 10.5022 15.5 10.6348 15.5H21.3633C21.4959 15.5 21.6231 15.5527 21.7168 15.6464C21.8106 15.7402 21.8633 15.8674 21.8633 16C21.8633 16.1326 21.8106 16.2598 21.7168 16.3536C21.6231 16.4473 21.4959 16.5 21.3633 16.5Z" fill="#5514B4"/>
</svg>
