<svg width="266" xmlns="http://www.w3.org/2000/svg" viewBox="0 0 265.11 58">
	<path class="background" fill-rule="evenodd" d="M1.53 7A4 4 0 0 1 5 1h255.11a4 4 0 0 1 4 4v48a4 4 0 0 1-4 4H5.01a4 4 0 0 1-4-4 3.93 3.93 0 0 1 .52-2l11.45-20a4 4 0 0 0 0-4Z" />
	<path class="border" d="m12.98 31-.87-.5Zm0-4-.87.5ZM1.53 51l-.87-.5Zm0-44-.87.5Zm258.58-7H5.01v2h255.1Zm5 53V5h-2v48ZM5.01 58h255.1v-2H5.01Zm7.1-27.51-11.45 20 1.74 1 11.44-20-1.73-1Zm0-3a3 3 0 0 1 0 3l1.73 1a5 5 0 0 0 0-5l-1.73 1ZM.66 7.48l11.45 20.03 1.73-1L2.41 6.5l-1.74 1ZM5.01 56a3 3 0 0 1-3-3 3 3 0 0 1 .4-1.49l-1.74-1A5 5 0 0 0 5.01 58Zm258.1-3a3 3 0 0 1-3 3v2a5 5 0 0 0 5-5ZM5.01 0a5 5 0 0 0-5 5 5.07 5.07 0 0 0 .66 2.49l1.74-1A3 3 0 0 1 5 2V0Zm255.1 2a3 3 0 0 1 3 3h2a5 5 0 0 0-5-5Z" />
</svg>