<svg width="127" height="126" viewBox="0 0 127 126" fill="none" xmlns="http://www.w3.org/2000/svg">
<path d="M107.196 102.369H20.429C18.3599 102.367 16.3761 101.553 14.913 100.106C13.4499 98.6592 12.6271 96.697 12.625 94.6505V90.6104C12.6271 88.5638 13.45 86.6017 14.913 85.1546C16.3761 83.7075 18.3599 82.8936 20.429 82.8915H32.3023V86.7871H20.429C19.4042 86.7885 18.4218 87.1917 17.6972 87.9084C16.9726 88.6251 16.5649 89.5968 16.5635 90.6104V94.6505C16.5649 95.6641 16.9726 96.6358 17.6972 97.3525C18.4218 98.0692 19.4042 98.4724 20.429 98.4738H107.196C108.221 98.4724 109.203 98.0692 109.928 97.3525C110.652 96.6358 111.06 95.6641 111.061 94.6505V90.6104C111.06 89.5968 110.652 88.6251 109.928 87.9084C109.203 87.1917 108.221 86.7885 107.196 86.7871H95.3304V82.8915H107.196C109.265 82.8936 111.249 83.7075 112.712 85.1546C114.175 86.6017 114.998 88.5638 115 90.6104V94.6505C114.998 96.697 114.175 98.6592 112.712 100.106C111.249 101.553 109.265 102.367 107.196 102.369Z" fill="white"/>
<path d="M59.8481 91.0726V88.2541H60.5387C60.7311 88.2535 60.9216 88.2152 61.099 88.1416C61.2765 88.068 61.4375 87.9604 61.5728 87.825C61.8919 87.5201 62.1423 87.1519 62.3076 86.7447C62.4899 86.3317 62.5848 85.8861 62.5865 85.4355C62.587 85.2874 62.5721 85.1397 62.5423 84.9946H60.0046V82.7919H61.5864C61.4446 82.4064 61.3253 82.0131 61.2292 81.614C61.124 81.1923 61.0714 80.7594 61.0727 80.325C61.0515 79.4533 61.2828 78.5938 61.7395 77.8481C62.1919 77.1447 62.8373 76.5832 63.6002 76.2293C64.4602 75.8334 65.4005 75.6377 66.3488 75.6571C67.3339 75.6413 68.3079 75.8643 69.1858 76.3067C69.9509 76.6833 70.6348 77.2034 71.1996 77.838L69.3083 79.8185C68.9546 79.4313 68.5327 79.1108 68.0632 78.8729C67.5256 78.6011 66.9286 78.4647 66.325 78.4757C65.7719 78.462 65.2331 78.65 64.8112 79.0041C64.6036 79.1845 64.4398 79.4089 64.332 79.6607C64.2243 79.9124 64.1753 80.1849 64.1887 80.458C64.1931 80.7618 64.2272 81.0645 64.2907 81.3618C64.3884 81.799 64.5262 82.2265 64.7024 82.639L64.767 82.7921H70.0432V84.9948H65.4575C65.4711 85.1563 65.4812 85.3179 65.4812 85.4794C65.4765 86.0223 65.3262 86.5542 65.0457 87.0208C64.7638 87.5131 64.3717 87.9351 63.8994 88.2542H71.8253V91.0728L59.8481 91.0726Z" fill="white"/>
<path d="M72.2709 62.5425L68.9324 60.4748C70.9611 57.2617 72.0972 53.5763 72.2262 49.7902C72.3552 46.0042 71.4725 42.2514 69.667 38.9105C67.8616 35.5696 65.1973 32.7587 61.943 30.7614C58.6886 28.764 54.9593 27.6508 51.1311 27.5341C47.3029 27.4174 43.5113 28.3013 40.1388 30.0966C36.7662 31.8919 33.932 34.5352 31.9219 37.7598C29.9119 40.9843 28.7971 44.6762 28.6901 48.4629C28.5831 52.2496 29.4876 55.9973 31.3124 59.3279L27.8508 61.1882C25.6947 57.2551 24.6255 52.8291 24.7511 48.3567C24.8767 43.8844 26.1927 39.5239 28.5662 35.7153C30.9397 31.9066 34.2868 28.7845 38.2699 26.6639C42.2529 24.5433 46.731 23.4992 51.2522 23.6371C55.7735 23.7749 60.1781 25.0898 64.0215 27.449C67.8649 29.8082 71.0113 33.1283 73.1431 37.0743C75.275 41.0204 76.3169 45.4527 76.1637 49.9242C76.0106 54.3957 74.6678 58.7482 72.2709 62.5425Z" fill="white"/>
<path d="M45.9677 74.1114C42.1558 73.4535 38.5445 71.9486 35.4059 69.7101C32.2673 67.4717 29.6832 64.5579 27.8481 61.1884L31.3097 59.3281C32.8798 62.1688 35.0725 64.6261 37.7272 66.5199C40.382 68.4137 43.4315 69.696 46.6523 70.2729L45.9677 74.1114Z" fill="white"/>
<path d="M44.4712 55.7654V52.9468H45.1618C45.3542 52.9462 45.5446 52.908 45.7221 52.8343C45.8995 52.7607 46.0606 52.6531 46.1959 52.5177C46.5149 52.2128 46.7653 51.8447 46.9306 51.4374C47.1129 51.0244 47.2078 50.5789 47.2096 50.1283C47.21 49.9802 47.1952 49.8325 47.1653 49.6874H44.6278V47.4847H46.2096C46.0678 47.0992 45.9485 46.7059 45.8524 46.3068C45.7472 45.885 45.6946 45.4522 45.696 45.0178C45.6747 44.1461 45.906 43.2866 46.3627 42.5408C46.8151 41.8374 47.4605 41.276 48.2234 40.922C49.0834 40.5261 50.0237 40.3304 50.972 40.3499C51.9571 40.3341 52.9311 40.5571 53.809 40.9994C54.5741 41.3761 55.258 41.8961 55.8228 42.5307L53.9315 44.5113C53.5778 44.124 53.1559 43.8036 52.6864 43.5656C52.1488 43.2938 51.5518 43.1574 50.9482 43.1685C50.3951 43.1547 49.8563 43.3428 49.4344 43.6968C49.2268 43.8773 49.063 44.1017 48.9552 44.3534C48.8474 44.6051 48.7984 44.8777 48.8119 45.1507C48.8162 45.4546 48.8504 45.7572 48.914 46.0545C49.0116 46.4918 49.1494 46.9193 49.3256 47.3317L49.3902 47.4849H54.6662V49.6875H50.0806C50.0942 49.8491 50.1044 50.0106 50.1044 50.1722C50.0998 50.715 49.9495 51.2469 49.669 51.7135C49.387 52.2059 48.9949 52.6278 48.5226 52.947H56.4486V55.7656L44.4712 55.7654Z" fill="white"/>
<path d="M83.9436 102.375L47.5505 102.274L46.9698 101.65C44.1256 98.611 42.0746 94.9308 40.9952 90.9294C39.9158 86.928 39.8405 82.7264 40.7759 78.6897C41.7113 74.6529 43.6291 70.9032 46.3626 67.7661C49.0962 64.6291 52.5628 62.1996 56.4614 60.6889C60.3599 59.1782 64.5725 58.6318 68.733 59.0973C72.8936 59.5628 76.8763 61.026 80.3351 63.3599C83.794 65.6938 86.6244 68.8278 88.5804 72.4895C90.5365 76.1512 91.5589 80.2299 91.5591 84.3713C91.5624 90.8472 89.0446 97.0758 84.5284 101.764L83.9436 102.375ZM49.3006 98.3824L82.232 98.4756C85.7063 94.581 87.6226 89.5652 87.6205 84.3713C87.6228 80.8973 86.7757 77.4743 85.1514 74.394C83.5272 71.3138 81.174 68.6677 78.2924 66.6813C75.4109 64.6949 72.0864 63.4272 68.6025 62.9862C65.1186 62.5451 61.5785 62.9439 58.2841 64.1485C54.9896 65.353 52.0385 67.3277 49.6823 69.904C47.3261 72.4804 45.6347 75.5821 44.7524 78.9447C43.87 82.3073 43.8227 85.8311 44.6147 89.2156C45.4066 92.6002 47.0143 95.7452 49.3006 98.3824Z" fill="white"/>
</svg>
