<svg width="126" height="126" viewBox="0 0 126 126" fill="none" xmlns="http://www.w3.org/2000/svg">
<path d="M100.35 102.375H23.625V25.5907C23.625 25.0693 23.8323 24.5694 24.2012 24.2007C24.5702 23.8321 25.0705 23.625 25.5923 23.625C26.1141 23.625 26.6145 23.8321 26.9834 24.2007C27.3524 24.5694 27.5596 25.0693 27.5596 25.5907V98.4436H100.35C100.872 98.4436 101.372 98.6507 101.741 99.0194C102.11 99.388 102.317 99.888 102.317 100.409C102.317 100.931 102.11 101.431 101.741 101.799C101.372 102.168 100.872 102.375 100.35 102.375Z" fill="white"/>
<path d="M25.738 87.2068C25.3489 87.2067 24.9686 87.0914 24.6452 86.8754C24.3217 86.6594 24.0696 86.3524 23.9207 85.9933C23.7719 85.6341 23.7329 85.2389 23.8088 84.8577C23.8847 84.4764 24.072 84.1262 24.3471 83.8513L45.1076 63.1061L72.4521 63.0773L99.0029 36.5502C99.1849 36.3647 99.4019 36.217 99.6413 36.1158C99.8808 36.0146 100.138 35.9618 100.398 35.9605C100.658 35.9592 100.916 36.0094 101.156 36.1082C101.397 36.207 101.615 36.3524 101.799 36.5361C101.983 36.7198 102.128 36.9381 102.227 37.1784C102.326 37.4186 102.376 37.6761 102.375 37.9359C102.374 38.1956 102.321 38.4526 102.219 38.6918C102.118 38.9311 101.97 39.1479 101.785 39.3297L74.085 67.0085L46.7405 67.0373L27.129 86.6309C26.9465 86.8137 26.7297 86.9587 26.491 87.0575C26.2523 87.1563 25.9964 87.2071 25.738 87.2068Z" fill="white"/>
</svg>
