<svg width="126" height="126" viewBox="0 0 126 126" fill="none" xmlns="http://www.w3.org/2000/svg">
<path d="M63 66.9375C65.1746 66.9375 66.9375 65.1746 66.9375 63C66.9375 60.8254 65.1746 59.0625 63 59.0625C60.8254 59.0625 59.0625 60.8254 59.0625 63C59.0625 65.1746 60.8254 66.9375 63 66.9375Z" fill="white"/>
<path d="M114.188 63C114.188 63 92.5581 40.785 65.4191 39.4976C63.8105 39.3341 62.1895 39.3341 60.5809 39.4976C33.4421 40.785 11.8125 63 11.8125 63C11.8125 63 33.4421 85.215 60.5809 86.5024C62.1895 86.6659 63.8105 86.6659 65.4191 86.5024C92.5581 85.215 114.188 63 114.188 63ZM63 70.875C61.4425 70.875 59.9199 70.4131 58.6249 69.5478C57.3298 68.6825 56.3205 67.4526 55.7244 66.0136C55.1284 64.5747 54.9725 62.9913 55.2763 61.4637C55.5802 59.9361 56.3302 58.5329 57.4315 57.4315C58.5329 56.3302 59.9361 55.5802 61.4637 55.2763C62.9913 54.9725 64.5747 55.1284 66.0136 55.7244C67.4526 56.3205 68.6825 57.3298 69.5478 58.6249C70.4131 59.9199 70.875 61.4425 70.875 63C70.875 65.0886 70.0453 67.0916 68.5685 68.5685C67.0916 70.0453 65.0886 70.875 63 70.875ZM17.6034 63C26.0625 55.5515 35.882 49.8089 46.5213 46.0884C44.2599 48.2863 42.4623 50.9155 41.2348 53.8203C40.0073 56.7251 39.3749 59.8466 39.3749 63.0001C39.375 66.1536 40.0075 69.2751 41.2351 72.1799C42.4626 75.0847 44.2603 77.7137 46.5218 79.9116C35.8823 76.1912 26.0626 70.4486 17.6034 63ZM79.4784 79.9116C81.7398 77.7137 83.5375 75.0846 84.765 72.1798C85.9925 69.2751 86.625 66.1536 86.6251 63.0001C86.6251 59.8466 85.9927 56.7251 84.7653 53.8203C83.5378 50.9155 81.7402 48.2864 79.4789 46.0884C90.1181 49.8089 99.9376 55.5515 108.397 63C99.9375 70.4486 90.1178 76.1912 79.4784 79.9116Z" fill="white"/>
</svg>
